<svg width="17" height="13" viewBox="0 0 17 13" fill="none" xmlns="http://www.w3.org/2000/svg">
<path d="M1 2.57143C1 2.15466 1.17559 1.75496 1.48816 1.46026C1.80072 1.16556 2.22464 1 2.66667 1H14.3333C14.7754 1 15.1993 1.16556 15.5118 1.46026C15.8244 1.75496 16 2.15466 16 2.57143V10.4286C16 10.8453 15.8244 11.245 15.5118 11.5397C15.1993 11.8344 14.7754 12 14.3333 12H2.66667C2.22464 12 1.80072 11.8344 1.48816 11.5397C1.17559 11.245 1 10.8453 1 10.4286V2.57143Z" stroke="white" stroke-width="2" stroke-linecap="round" stroke-linejoin="round"/>
<path d="M1 2.57129L8.5 7.28558L16 2.57129" stroke="white" stroke-width="2" stroke-linecap="round" stroke-linejoin="round"/>
</svg>
