<svg width="25" height="25" viewBox="0 0 25 25" fill="none" xmlns="http://www.w3.org/2000/svg">
<path d="M16.2044 15.1539L15.7299 15.6533C15.7299 15.6533 14.6022 16.8406 11.5241 13.5999C8.44596 10.3592 9.57364 9.17195 9.57364 9.17195L9.87241 8.85741C10.6084 8.08254 10.6778 6.83851 10.0357 5.93031L8.72214 4.07251C7.92737 2.94844 6.39162 2.79995 5.48067 3.759L3.84567 5.48035C3.39399 5.9559 3.0913 6.57234 3.12801 7.25619C3.22191 9.00569 3.96949 12.7698 8.141 17.1617C12.5647 21.819 16.7154 22.0041 18.4128 21.8366C18.9497 21.7835 19.4166 21.4941 19.7928 21.0979L21.2726 19.54C22.2715 18.4884 21.9898 16.6856 20.7118 15.95L18.7217 14.8045C17.8825 14.3215 16.8602 14.4633 16.2044 15.1539Z" fill="white"/>
<path d="M13.812 1.95832C13.881 1.53239 14.2836 1.24347 14.7095 1.31242C14.7359 1.31747 14.8208 1.33332 14.8651 1.34322C14.9541 1.36302 15.078 1.39349 15.2326 1.43852C15.5418 1.52856 15.9737 1.67691 16.492 1.91454C17.5298 2.39033 18.9109 3.22262 20.344 4.65575C21.7771 6.08887 22.6094 7.46992 23.0851 8.50772C23.3228 9.02607 23.4712 9.45795 23.5612 9.76709C23.6062 9.92169 23.6367 10.0457 23.6565 10.1346C23.6664 10.179 23.6737 10.2147 23.6787 10.2411L23.6847 10.2736C23.7536 10.6994 23.4673 11.1188 23.0414 11.1878C22.6167 11.2565 22.2166 10.9689 22.146 10.5451C22.1438 10.5336 22.1377 10.5031 22.1314 10.4742C22.1185 10.4165 22.0963 10.325 22.0611 10.204C21.9905 9.96203 21.8682 9.60231 21.6648 9.15889C21.2588 8.27315 20.5286 7.05005 19.2391 5.7606C17.9497 4.47117 16.7266 3.74097 15.8409 3.33489C15.3974 3.1316 15.0377 3.00918 14.7957 2.93868C14.6747 2.90344 14.5226 2.86853 14.4649 2.85569C14.041 2.78503 13.7433 2.38303 13.812 1.95832Z" fill="white"/>
<path fill-rule="evenodd" clip-rule="evenodd" d="M14.0476 5.55121C14.1661 5.13633 14.5985 4.8961 15.0134 5.01463L14.7988 5.76583C15.0134 5.01463 15.0134 5.01463 15.0134 5.01463L15.015 5.01507L15.0165 5.01553L15.02 5.01654L15.0281 5.01896L15.0487 5.02537C15.0644 5.03039 15.084 5.03694 15.1074 5.04524C15.1541 5.06184 15.216 5.08545 15.2919 5.11795C15.4436 5.18299 15.6509 5.28343 15.9057 5.43417C16.4155 5.73592 17.1115 6.23714 17.9292 7.05482C18.747 7.87251 19.2481 8.56853 19.5499 9.07839C19.7006 9.33309 19.801 9.54045 19.8661 9.69221C19.8986 9.76804 19.9223 9.82987 19.9388 9.87666C19.9472 9.90004 19.9536 9.91965 19.9587 9.93536L19.9651 9.95598L19.9675 9.96405L19.9685 9.96752L19.9689 9.96912C19.9689 9.96912 19.9695 9.97062 19.2182 10.1852L19.9695 9.97062C20.088 10.3855 19.8477 10.8179 19.4329 10.9364C19.0215 11.0539 18.5929 10.8188 18.4701 10.4104L18.4662 10.3992C18.4607 10.3835 18.4492 10.3527 18.43 10.3077C18.3914 10.2178 18.3215 10.0707 18.2053 9.87421C17.973 9.48177 17.5535 8.8888 16.8244 8.15968C16.0953 7.43056 15.5023 7.01108 15.1099 6.77882C14.9134 6.66255 14.7663 6.59265 14.6763 6.55411C14.6313 6.53483 14.6005 6.52333 14.5849 6.51778L14.5736 6.51394C14.1653 6.39114 13.9301 5.96255 14.0476 5.55121Z" fill="white"/>
</svg>
