<svg width="70" height="70" viewBox="0 0 70 70" fill="none" xmlns="http://www.w3.org/2000/svg">
<g id="&#209;&#128;&#208;&#190;&#208;&#183;&#208;&#190;&#208;&#178; &#208;&#186;&#208;&#189;&#208;&#190;&#208;&#191;&#208;&#186;&#208;&#176; &#208;&#183;&#208;&#178;1&#209;&#143;&#208;&#183;&#208;&#190;&#208;&#186; " filter="url(#filter0_d_97_26)">
<circle id="Ellipse 32" cx="33" cy="31" r="25" fill="#D46D89"/>
<g id="Group 195">
<path id="Vector" d="M36.8038 35.8524L36.1579 36.5322C36.1579 36.5322 34.6229 38.1481 30.4329 33.7375C26.2429 29.3269 27.778 27.711 27.778 27.711L28.1846 27.2829C29.1865 26.2283 29.281 24.5352 28.4069 23.2991L26.6189 20.7706C25.537 19.2407 23.4466 19.0386 22.2066 20.3439L19.981 22.6867C19.3661 23.3339 18.9541 24.1729 19.0041 25.1036C19.1319 27.4847 20.1495 32.6077 25.8278 38.5851C31.8494 44.9237 37.4994 45.1756 39.8099 44.9477C40.5407 44.8755 41.1762 44.4815 41.6884 43.9424L43.7027 41.822C45.0623 40.3908 44.6789 37.9372 42.9393 36.936L40.2303 35.3769C39.0881 34.7195 37.6965 34.9126 36.8038 35.8524Z" fill="white"/>
<path id="Vector_2" d="M33.5473 17.8929C33.6411 17.3132 34.1892 16.92 34.769 17.0138C34.8048 17.0207 34.9204 17.0423 34.9808 17.0558C35.1019 17.0827 35.2706 17.1242 35.481 17.1855C35.9019 17.308 36.4897 17.5099 37.1953 17.8333C38.608 18.4809 40.4879 19.6137 42.4387 21.5642C44.3894 23.5147 45.5224 25.3943 46.1699 26.8067C46.4935 27.5122 46.6954 28.1 46.8179 28.5208C46.8792 28.7312 46.9207 28.8999 46.9477 29.0209C46.9611 29.0814 46.9711 29.1299 46.9779 29.1658L46.9861 29.2101C47.0798 29.7897 46.6902 30.3605 46.1104 30.4543C45.5323 30.5479 44.9877 30.1565 44.8915 29.5796C44.8886 29.564 44.8803 29.5224 44.8717 29.4832C44.8541 29.4046 44.8239 29.2801 44.776 29.1154C44.68 28.7861 44.5134 28.2965 44.2366 27.693C43.6839 26.4875 42.6899 24.8228 40.9347 23.0679C39.1796 21.3129 37.5146 20.3191 36.309 19.7665C35.7053 19.4898 35.2157 19.3232 34.8862 19.2272C34.7216 19.1792 34.5146 19.1317 34.436 19.1143C33.8589 19.0181 33.4537 18.471 33.5473 17.8929Z" fill="white"/>
<path id="Vector_3" fill-rule="evenodd" clip-rule="evenodd" d="M33.868 22.7833C34.0293 22.2187 34.6179 21.8917 35.1827 22.053L34.8906 23.0754C35.1827 22.053 35.1827 22.053 35.1827 22.053L35.1848 22.0536L35.1869 22.0542L35.1916 22.0556L35.2026 22.0589L35.2307 22.0676C35.252 22.0745 35.2788 22.0834 35.3106 22.0947C35.3742 22.1173 35.4584 22.1494 35.5617 22.1936C35.7683 22.2822 36.0504 22.4189 36.3973 22.624C37.0912 23.0347 38.0386 23.7169 39.1517 24.8297C40.2648 25.9426 40.947 26.8899 41.3577 27.5838C41.5629 27.9305 41.6996 28.2127 41.7882 28.4193C41.8325 28.5225 41.8646 28.6066 41.8872 28.6703C41.8985 28.7021 41.9073 28.7288 41.9143 28.7502L41.9229 28.7783L41.9262 28.7892L41.9276 28.794L41.9282 28.7961C41.9282 28.7961 41.9289 28.7982 40.9063 29.0903L41.9289 28.7982C42.0902 29.3628 41.7631 29.9513 41.1985 30.1126C40.6386 30.2726 40.0551 29.9526 39.8879 29.3967L39.8827 29.3814C39.8751 29.3601 39.8595 29.3182 39.8333 29.257C39.7809 29.1346 39.6857 28.9343 39.5275 28.667C39.2113 28.1328 38.6403 27.3258 37.6477 26.3335C36.6553 25.3411 35.8481 24.7702 35.314 24.4541C35.0465 24.2959 34.8463 24.2007 34.7238 24.1483C34.6626 24.122 34.6206 24.1064 34.5993 24.0988L34.584 24.0936C34.0282 23.9265 33.708 23.3431 33.868 22.7833Z" fill="white"/>
</g>
</g>
<defs>
<filter id="filter0_d_97_26" x="0" y="0" width="70" height="70" filterUnits="userSpaceOnUse" color-interpolation-filters="sRGB">
<feFlood flood-opacity="0" result="BackgroundImageFix"/>
<feColorMatrix in="SourceAlpha" type="matrix" values="0 0 0 0 0 0 0 0 0 0 0 0 0 0 0 0 0 0 127 0" result="hardAlpha"/>
<feOffset dx="2" dy="4"/>
<feGaussianBlur stdDeviation="5"/>
<feComposite in2="hardAlpha" operator="out"/>
<feColorMatrix type="matrix" values="0 0 0 0 0 0 0 0 0 0 0 0 0 0 0 0 0 0 0.25 0"/>
<feBlend mode="normal" in2="BackgroundImageFix" result="effect1_dropShadow_97_26"/>
<feBlend mode="normal" in="SourceGraphic" in2="effect1_dropShadow_97_26" result="shape"/>
</filter>
</defs>
</svg>
