<svg width="25" height="25" viewBox="0 0 25 25" fill="none" xmlns="http://www.w3.org/2000/svg">
<g id="phone-calling-svgrepo-com (1) 2">
<path id="Vector" d="M16.2044 15.1539L15.7299 15.6533C15.7299 15.6533 14.6022 16.8406 11.5241 13.5999C8.44596 10.3592 9.57364 9.17195 9.57364 9.17195L9.87241 8.85741C10.6084 8.08254 10.6778 6.83851 10.0357 5.93031L8.72214 4.07251C7.92737 2.94844 6.39162 2.79995 5.48067 3.759L3.84567 5.48035C3.39399 5.9559 3.0913 6.57234 3.12801 7.25619C3.22191 9.00569 3.96949 12.7698 8.141 17.1617C12.5647 21.819 16.7154 22.0041 18.4128 21.8366C18.9497 21.7835 19.4166 21.4941 19.7928 21.0979L21.2726 19.54C22.2715 18.4884 21.9898 16.6856 20.7118 15.95L18.7217 14.8045C17.8825 14.3215 16.8602 14.4633 16.2044 15.1539Z" fill="black"/>
<path id="Vector_2" d="M13.812 1.95815C13.881 1.53223 14.2836 1.2433 14.7095 1.31225C14.7359 1.3173 14.8208 1.33315 14.8651 1.34305C14.9541 1.36285 15.078 1.39332 15.2326 1.43835C15.5418 1.52839 15.9737 1.67674 16.492 1.91437C17.5298 2.39016 18.9109 3.22246 20.344 4.65558C21.7771 6.08871 22.6094 7.46976 23.0851 8.50755C23.3228 9.0259 23.4712 9.45778 23.5612 9.76692C23.6062 9.92152 23.6367 10.0455 23.6565 10.1344C23.6664 10.1788 23.6737 10.2145 23.6787 10.2409L23.6847 10.2734C23.7536 10.6993 23.4673 11.1186 23.0414 11.1876C22.6167 11.2564 22.2166 10.9687 22.146 10.5449C22.1438 10.5334 22.1377 10.5029 22.1314 10.4741C22.1185 10.4164 22.0963 10.3249 22.0611 10.2039C21.9905 9.96186 21.8682 9.60214 21.6648 9.15873C21.2588 8.27299 20.5286 7.04988 19.2391 5.76044C17.9497 4.471 16.7266 3.7408 15.8409 3.33473C15.3974 3.13144 15.0377 3.00901 14.7957 2.93851C14.6747 2.90327 14.5226 2.86836 14.4649 2.85552C14.041 2.78486 13.7433 2.38286 13.812 1.95815Z" fill="black"/>
<path id="Vector_3" fill-rule="evenodd" clip-rule="evenodd" d="M14.0476 5.55135C14.1661 5.13648 14.5985 4.89625 15.0134 5.01478L14.7988 5.76598C15.0134 5.01478 15.0134 5.01478 15.0134 5.01478L15.015 5.01522L15.0165 5.01568L15.02 5.01669L15.0281 5.0191L15.0487 5.02552C15.0644 5.03054 15.084 5.03708 15.1074 5.04538C15.1541 5.06199 15.216 5.08559 15.2919 5.11809C15.4436 5.18313 15.6509 5.28357 15.9057 5.43431C16.4155 5.73606 17.1115 6.23729 17.9292 7.05497C18.747 7.87265 19.2481 8.56867 19.5499 9.07854C19.7006 9.33324 19.801 9.54059 19.8661 9.69235C19.8986 9.76818 19.9223 9.83002 19.9388 9.8768C19.9472 9.90019 19.9536 9.9198 19.9587 9.93551L19.9651 9.95612L19.9675 9.9642L19.9685 9.96766L19.9689 9.96927C19.9689 9.96927 19.9695 9.97077 19.2182 10.1854L19.9695 9.97077C20.088 10.3856 19.8477 10.818 19.4329 10.9366C19.0215 11.0541 18.5929 10.819 18.4701 10.4105L18.4662 10.3993C18.4607 10.3837 18.4492 10.3529 18.43 10.3079C18.3914 10.2179 18.3215 10.0708 18.2053 9.87435C17.973 9.48191 17.5535 8.88895 16.8244 8.15982C16.0953 7.43071 15.5023 7.01123 15.1099 6.77897C14.9134 6.6627 14.7663 6.5928 14.6763 6.55426C14.6313 6.53498 14.6005 6.52348 14.5849 6.51792L14.5736 6.51408C14.1653 6.39129 13.9301 5.9627 14.0476 5.55135Z" fill="black"/>
</g>
</svg>
