<svg width="27" height="27" viewBox="0 0 27 27" fill="none" xmlns="http://www.w3.org/2000/svg">
<path d="M1 13.5C1 16.8152 2.31696 19.9946 4.66117 22.3388C7.00537 24.683 10.1848 26 13.5 26C16.8152 26 19.9946 24.683 22.3388 22.3388C24.683 19.9946 26 16.8152 26 13.5C26 10.1848 24.683 7.00537 22.3388 4.66117C19.9946 2.31696 16.8152 1 13.5 1C10.1848 1 7.00537 2.31696 4.66117 4.66117C2.31696 7.00537 1 10.1848 1 13.5Z" stroke="white" stroke-width="2" stroke-linecap="round" stroke-linejoin="round"/>
<path d="M18.984 6.92285L17.934 20.1234L12.17 14.3997L5.33997 13.0161L18.984 6.92285Z" stroke="white" stroke-width="2" stroke-linecap="round" stroke-linejoin="round"/>
<path d="M9.62598 13.8799L10.652 19.6113L14.406 16.6005M12.164 14.3713L14.352 12.6782" stroke="white" stroke-width="2" stroke-linecap="round" stroke-linejoin="round"/>
</svg>
