<svg width="25" height="25" viewBox="0 0 25 25" fill="none" xmlns="http://www.w3.org/2000/svg">
<path d="M7.40377 5.18665C7.16301 5.15421 6.91744 5.19881 6.70813 5.313H6.68999C6.20421 5.57523 5.76636 5.90541 5.39327 6.29399C5.08237 6.62417 4.91397 6.95792 4.86992 7.27975C4.84401 7.47046 4.86215 7.66356 4.92304 7.84593L4.94635 7.85785C5.29612 8.80308 5.75211 9.71256 6.30914 10.5684C7.02771 11.7703 7.91155 12.882 8.93885 13.8761L8.96994 13.9166L9.01917 13.95L9.04896 13.9822L9.08523 14.0108C10.1695 14.9588 11.3805 15.7759 12.6891 16.4424C14.1853 17.1922 15.0934 17.5462 15.6388 17.694V17.7011C15.7981 17.7464 15.9432 17.7667 16.0896 17.7667C16.5543 17.736 16.9942 17.5622 17.3384 17.2732C17.7594 16.9299 18.1156 16.5258 18.3929 16.0765V16.0681C18.6532 15.6152 18.5651 15.1885 18.1895 14.8988C17.4355 14.2914 16.6195 13.7525 15.7528 13.2897C15.1724 13 14.583 13.1752 14.3447 13.4684L13.8356 14.0597C13.5739 14.3529 13.0998 14.3124 13.0998 14.3124L13.0868 14.3195C9.549 13.4887 8.60463 10.1929 8.60463 10.1929C8.60463 10.1929 8.56059 9.74474 8.88833 9.51588L9.52568 9.04386C9.8314 8.815 10.0438 8.27385 9.7161 7.73985C9.21423 6.94293 8.62987 6.19248 7.97117 5.49895C7.82708 5.3361 7.62529 5.22512 7.40118 5.18546M13.3822 3.75391C13.2104 3.75391 13.0456 3.8167 12.9242 3.92847C12.8027 4.04023 12.7344 4.19183 12.7344 4.34989C12.7344 4.50796 12.8027 4.65955 12.9242 4.77131C13.0456 4.88308 13.2104 4.94587 13.3822 4.94587C15.0196 4.94587 16.3798 5.43816 17.4563 6.3822C18.0094 6.89832 18.4408 7.5098 18.7232 8.17969C19.0069 8.85076 19.1364 9.56714 19.1027 10.2847C19.0955 10.4428 19.1569 10.597 19.2732 10.7135C19.3896 10.8299 19.5515 10.8991 19.7233 10.9057C19.895 10.9124 20.0627 10.8559 20.1892 10.7489C20.3158 10.6418 20.391 10.4928 20.3982 10.3348C20.4368 9.45218 20.2776 8.57172 19.9305 7.74819C19.5818 6.92047 19.0508 6.16807 18.3708 5.53828L18.3579 5.52636C17.0223 4.35227 15.3331 3.75391 13.3822 3.75391Z" fill="white"/>
<path d="M13.3369 5.71359C13.1651 5.71359 13.0004 5.77639 12.8789 5.88815C12.7574 5.99992 12.6892 6.15151 12.6892 6.30958C12.6892 6.46764 12.7574 6.61923 12.8789 6.731C13.0004 6.84277 13.1651 6.90556 13.3369 6.90556H13.3589C14.5404 6.98304 15.4005 7.3454 16.0029 7.94019C16.6208 8.55286 16.9408 9.31453 16.9162 10.2562C16.9122 10.4143 16.9767 10.5673 17.0954 10.6816C17.214 10.796 17.3772 10.8622 17.549 10.8659C17.7208 10.8695 17.8871 10.8102 18.0114 10.701C18.1356 10.5918 18.2077 10.4417 18.2116 10.2836C18.2427 9.04753 17.81 7.98072 16.9525 7.12965V7.12727C16.0754 6.2619 14.872 5.80418 13.4237 5.71479L13.4017 5.7124L13.3369 5.71359Z" fill="white"/>
<path d="M13.3122 7.70983C13.2256 7.70279 13.1382 7.71189 13.0555 7.7366C12.9727 7.76131 12.8962 7.80111 12.8305 7.85362C12.7648 7.90614 12.7113 7.9703 12.6731 8.04226C12.635 8.11423 12.613 8.19253 12.6085 8.27249C12.604 8.35245 12.617 8.43243 12.6468 8.50766C12.6766 8.58288 12.7226 8.65181 12.782 8.71032C12.8414 8.76884 12.913 8.81574 12.9925 8.84823C13.072 8.88071 13.1579 8.89812 13.2449 8.89941C13.7864 8.92563 14.1323 9.07582 14.3499 9.27726C14.5688 9.4799 14.732 9.80531 14.7618 10.3143C14.7634 10.3943 14.7825 10.4731 14.818 10.5462C14.8534 10.6192 14.9045 10.6849 14.9681 10.7394C15.0318 10.7939 15.1067 10.8361 15.1884 10.8634C15.2701 10.8907 15.357 10.9026 15.4438 10.8983C15.5306 10.8941 15.6156 10.8738 15.6937 10.8387C15.7718 10.8036 15.8415 10.7544 15.8985 10.694C15.9555 10.6336 15.9987 10.5632 16.0255 10.4872C16.0523 10.4111 16.0623 10.3308 16.0547 10.2511C16.0132 9.53592 15.7697 8.90418 15.2709 8.43931C14.7696 7.97444 14.0869 7.74797 13.3122 7.70983Z" fill="white"/>
<path fill-rule="evenodd" clip-rule="evenodd" d="M6.24051 0.635882C10.3626 -0.211961 14.6374 -0.211961 18.7595 0.635882L19.1986 0.72528C20.4033 0.973779 21.5097 1.52442 22.395 2.31613C23.2804 3.10785 23.9102 4.10972 24.2145 5.21066C25.2618 9.00445 25.2618 12.979 24.2145 16.7728C23.9102 17.8737 23.2804 18.8756 22.395 19.6673C21.5097 20.459 20.4033 21.0096 19.1986 21.2581L18.7582 21.3475C16.1763 21.878 13.5272 22.0782 10.8859 21.9423L7.44914 24.7721C7.31957 24.8788 7.16124 24.9516 6.99067 24.9828C6.82011 25.014 6.64355 25.0026 6.47945 24.9496C6.31534 24.8966 6.16969 24.8041 6.05771 24.6817C5.94573 24.5592 5.87151 24.4114 5.84282 24.2535L5.27412 21.1282C4.18391 20.8155 3.19895 20.251 2.41318 19.4885C1.62741 18.7261 1.06702 17.7911 0.785479 16.7728C-0.261826 12.979 -0.261826 9.00445 0.785479 5.21066C1.08983 4.10972 1.71959 3.10785 2.60495 2.31613C3.49031 1.52442 4.59667 0.973779 5.80136 0.72528L6.24051 0.635882ZM18.3359 2.37973C14.4927 1.58923 10.5073 1.58923 6.66411 2.37973L6.22367 2.47032C5.36993 2.64695 4.58598 3.03753 3.95859 3.59882C3.33121 4.16011 2.88488 4.87021 2.66903 5.65049C1.70134 9.15564 1.70134 12.8278 2.66903 16.3329C2.88499 17.1134 3.33151 17.8236 3.95913 18.3849C4.58676 18.9462 5.37099 19.3367 6.22497 19.5131L6.34155 19.5369C6.53016 19.5757 6.7019 19.6654 6.83482 19.7945C6.96773 19.9236 7.05579 20.0863 7.08772 20.2616L7.46857 22.3571L9.89361 20.3606C9.99045 20.2806 10.1038 20.2194 10.2268 20.1805C10.3499 20.1416 10.4802 20.1258 10.61 20.1341C13.1996 20.3023 15.8021 20.1237 18.3359 19.6037L18.775 19.5131C19.629 19.3367 20.4132 18.9462 21.0409 18.3849C21.6685 17.8236 22.115 17.1134 22.331 16.3329C23.2974 12.8285 23.2974 9.15607 22.331 5.65049C22.115 4.87006 21.6685 4.15985 21.0409 3.59855C20.4132 3.03725 19.629 2.64676 18.775 2.47032L18.3359 2.37973Z" fill="white"/>
</svg>
